<?xml version="1.0" standalone="no"?>
<!DOCTYPE svg PUBLIC "-//W3C//DTD SVG 20010904//EN"
 "http://www.w3.org/TR/2001/REC-SVG-20010904/DTD/svg10.dtd">
<svg version="1.0" xmlns="http://www.w3.org/2000/svg"
 width="1024.000000pt" height="1024.000000pt" viewBox="0 0 1024.000000 1024.000000"
 preserveAspectRatio="xMidYMid meet">
<metadata>
Created by potrace 1.14, written by Peter Selinger 2001-2017
</metadata>
<g transform="translate(0.000000,1024.000000) scale(0.100000,-0.100000)"
fill="#000000" stroke="none">
<path d="M4372 8504 c-117 -58 -169 -188 -128 -322 8 -26 22 -72 30 -102 9
-30 32 -111 52 -180 19 -69 42 -147 49 -175 7 -27 25 -90 40 -140 15 -49 33
-115 41 -145 8 -30 17 -62 20 -72 3 -12 -5 -19 -33 -28 -234 -75 -631 -271
-918 -453 -164 -105 -536 -366 -565 -397 -3 -3 -48 -39 -100 -79 -52 -41 -165
-132 -252 -203 -86 -70 -159 -128 -161 -128 -3 0 -63 46 -134 103 -337 271
-641 443 -1029 582 -281 101 -714 197 -886 196 -99 0 -189 -56 -234 -147 -28
-57 -25 -164 10 -284 155 -540 372 -999 628 -1328 27 -35 47 -69 45 -75 -3 -7
-39 -56 -80 -110 -235 -310 -473 -826 -597 -1300 -36 -138 -36 -213 3 -279 54
-92 124 -131 237 -131 164 1 528 78 800 170 449 151 791 345 1184 671 l48 40
167 -137 c537 -443 967 -736 1386 -940 187 -92 215 -104 358 -157 67 -25 123
-47 125 -48 1 -2 -55 -200 -124 -442 -114 -400 -125 -445 -121 -501 8 -104 76
-191 174 -224 105 -34 422 39 757 175 381 155 809 403 1201 697 l90 67 100 6
c55 4 111 9 125 11 14 2 56 7 93 10 37 4 76 8 85 10 9 1 40 6 67 9 760 99
1495 384 2061 798 543 396 952 924 1084 1398 36 128 35 300 -3 429 -141 475
-581 1029 -1128 1419 -317 226 -737 436 -1134 567 -312 102 -729 191 -1030
220 -33 3 -71 8 -85 10 -14 3 -71 7 -128 11 l-103 6 -117 88 c-556 416 -1161
718 -1676 835 -145 33 -226 33 -294 -1z m629 -655 c329 -135 701 -354 1071
-632 84 -63 167 -122 184 -130 31 -16 64 -21 234 -32 177 -12 353 -33 542 -66
l127 -22 -14 -31 c-118 -263 -180 -428 -241 -635 -35 -119 -99 -393 -109 -471
-3 -25 -10 -70 -15 -100 -8 -51 -23 -185 -35 -320 -6 -67 -7 -482 -1 -530 2
-19 7 -78 11 -130 4 -52 8 -97 10 -100 1 -3 5 -34 9 -70 33 -335 185 -858 354
-1220 17 -36 30 -66 29 -67 -4 -4 -315 -52 -407 -63 -157 -18 -162 -19 -255
-25 -239 -16 -248 -19 -360 -109 -246 -199 -645 -452 -930 -591 -125 -61 -326
-147 -331 -142 -2 1 40 151 93 332 112 385 117 425 66 517 -34 60 -100 112
-166 128 -266 68 -572 193 -842 346 -371 210 -690 441 -1270 923 -93 77 -190
150 -214 161 -95 46 -215 19 -311 -70 -69 -64 -266 -228 -350 -291 -292 -219
-610 -374 -983 -480 -60 -17 -111 -28 -114 -25 -10 10 75 214 167 401 128 260
251 439 435 630 64 67 89 124 88 202 -1 84 -25 129 -121 228 -193 201 -359
470 -500 808 -76 182 -80 198 -55 192 183 -40 466 -145 675 -251 212 -108 530
-335 720 -513 116 -109 174 -137 266 -128 33 2 74 13 93 22 28 14 211 154 229
175 10 12 288 238 400 326 629 493 1139 777 1630 908 49 13 110 36 135 50 77
45 126 140 120 231 -3 38 -135 520 -189 693 -4 12 -5 22 -3 22 2 0 60 -23 128
-51z m2855 -1090 c475 -186 898 -463 1213 -793 42 -44 84 -87 93 -97 43 -45
148 -184 211 -279 125 -190 215 -408 201 -490 -38 -227 -237 -543 -529 -836
-302 -304 -637 -529 -1065 -714 -101 -44 -277 -110 -294 -110 -24 0 -162 311
-235 525 -92 277 -160 606 -179 875 -13 191 -6 614 12 705 2 11 7 45 10 75 21
162 77 416 133 600 68 220 232 600 260 600 7 0 83 -27 169 -61z"/>
<path d="M8150 5738 c-34 -13 -73 -40 -106 -72 -205 -206 -48 -552 242 -534
162 10 282 129 292 290 8 131 -57 247 -172 305 -72 36 -180 41 -256 11z"/>
</g>
</svg>
