<?xml version="1.0" standalone="no"?>
<!DOCTYPE svg PUBLIC "-//W3C//DTD SVG 20010904//EN"
 "http://www.w3.org/TR/2001/REC-SVG-20010904/DTD/svg10.dtd">
<svg version="1.0" xmlns="http://www.w3.org/2000/svg"
 width="1024.000000pt" height="1024.000000pt" viewBox="0 0 1024.000000 1024.000000"
 preserveAspectRatio="xMidYMid meet">
<metadata>
Created by potrace 1.14, written by Peter Selinger 2001-2017
</metadata>
<g transform="translate(0.000000,1024.000000) scale(0.100000,-0.100000)"
fill="#000000" stroke="none">
<path d="M4450 8394 c-52 -41 -99 -81 -105 -87 -5 -7 -23 -23 -40 -35 -54 -42
-198 -175 -311 -287 -170 -167 -292 -328 -484 -635 -57 -91 -110 -172 -117
-181 -9 -11 -39 -19 -86 -24 -40 -4 -79 -9 -87 -10 -8 -1 -42 -5 -75 -9 -33
-4 -88 -14 -123 -22 -34 -7 -75 -16 -91 -19 -61 -11 -282 -79 -411 -126 -135
-51 -397 -175 -522 -248 -180 -106 -465 -314 -624 -456 -149 -132 -391 -382
-442 -456 -9 -13 -25 -33 -35 -44 -32 -35 -171 -246 -247 -375 -120 -203 -176
-324 -254 -541 l-27 -77 -52 5 c-89 7 -148 -50 -150 -143 -1 -88 38 -116 378
-279 64 -31 298 -125 311 -125 3 0 25 -9 48 -20 24 -10 64 -27 90 -38 l46 -18
-92 -38 c-123 -51 -192 -90 -366 -204 -112 -73 -147 -102 -158 -127 -20 -50
-3 -108 43 -145 24 -19 36 -21 86 -17 51 5 58 3 68 -16 14 -26 124 -181 155
-217 12 -14 52 -61 90 -105 257 -299 669 -630 1009 -810 50 -27 104 -58 120
-69 17 -12 31 -20 33 -18 1 1 46 -19 100 -44 253 -121 569 -239 772 -289 77
-19 198 -48 210 -50 231 -48 369 -71 555 -94 44 -6 103 -13 130 -16 28 -4 73
-8 100 -10 28 -2 86 -7 130 -11 151 -13 562 -19 690 -10 84 6 205 17 225 21
10 2 45 6 77 10 70 7 99 12 178 28 51 11 73 10 145 -4 47 -10 103 -20 125 -23
23 -4 52 -9 65 -11 37 -8 70 -13 125 -20 28 -4 59 -8 70 -10 11 -1 65 -8 120
-14 55 -6 114 -13 130 -15 17 -2 57 -7 90 -11 33 -3 74 -8 90 -10 140 -16 226
-20 465 -20 439 0 611 31 660 117 14 26 13 31 -8 72 -31 57 -182 207 -357 351
-33 28 -71 60 -84 72 l-24 21 34 30 c19 16 50 42 69 58 19 16 37 31 40 34 3 3
39 34 80 70 41 36 85 74 96 85 12 11 75 70 140 130 121 112 202 193 309 307
102 109 132 143 261 306 69 86 133 166 142 177 10 11 33 40 52 65 19 25 89
111 156 192 l121 146 153 -153 c432 -437 772 -724 1168 -987 231 -153 316
-187 343 -136 13 23 15 123 4 157 -3 11 -8 30 -10 43 -4 19 -14 63 -20 88 -21
83 -100 326 -142 435 -114 301 -279 534 -599 849 l-101 99 76 65 c96 82 308
295 384 386 114 135 175 237 260 436 102 241 216 623 233 785 11 99 7 205 -7
232 -29 54 -97 31 -235 -78 -305 -241 -783 -714 -1144 -1129 -36 -41 -69 -80
-75 -86 -5 -6 -54 -66 -109 -133 -54 -67 -99 -121 -100 -119 -8 10 -140 155
-200 218 -74 78 -191 203 -262 280 -45 50 -146 174 -214 265 -25 33 -48 62
-51 65 -19 17 -92 126 -124 185 -114 212 -197 349 -342 563 -87 129 -265 375
-283 392 -3 3 -46 55 -95 115 -97 119 -103 126 -222 260 -154 174 -405 416
-597 576 -16 13 -34 29 -40 34 -33 31 -288 214 -387 278 -210 137 -551 315
-729 382 -137 51 -265 95 -279 95 -9 0 -59 -34 -111 -76z"/>
</g>
</svg>
